<svg width="20" height="20" viewBox="0 0 20 20" fill="none" xmlns="http://www.w3.org/2000/svg">
<path d="M14.1667 0C14.6269 0 15 0.373096 15 0.833333V2.5C15 2.96024 14.6269 3.33333 14.1667 3.33333C13.7064 3.33333 13.3333 2.96024 13.3333 2.5V0.833333C13.3333 0.373096 13.7064 0 14.1667 0Z" fill="#777E91"/>
<path d="M14.1667 10C14.6269 10 15 10.3731 15 10.8333V15.8333C15 16.2936 14.6269 16.6667 14.1667 16.6667C13.7064 16.6667 13.3333 16.2936 13.3333 15.8333V10.8333C13.3333 10.3731 13.7064 10 14.1667 10Z" fill="#777E91"/>
<path d="M5.83333 3.33333C6.29357 3.33333 6.66667 3.70643 6.66667 4.16667V10.8333C6.66667 11.2936 6.29357 11.6667 5.83333 11.6667C5.3731 11.6667 5 11.2936 5 10.8333V4.16667C5 3.70643 5.3731 3.33333 5.83333 3.33333Z" fill="#777E91"/>
<path d="M5.83333 15C6.29357 15 6.66667 15.3731 6.66667 15.8333V19.1667C6.66667 19.6269 6.29357 20 5.83333 20C5.3731 20 5 19.6269 5 19.1667V15.8333C5 15.3731 5.3731 15 5.83333 15Z" fill="#777E91"/>
<path fill-rule="evenodd" clip-rule="evenodd" d="M11.6667 4.16675C11.6667 2.78604 12.786 1.66675 14.1667 1.66675C15.5474 1.66675 16.6667 2.78604 16.6667 4.16675V9.16675C16.6667 10.5475 15.5474 11.6667 14.1667 11.6667C12.786 11.6667 11.6667 10.5475 11.6667 9.16675V4.16675ZM15 4.16675V9.16675C15 9.62698 14.6269 10.0001 14.1667 10.0001C13.7065 10.0001 13.3334 9.62698 13.3334 9.16675V4.16675C13.3334 3.70651 13.7065 3.33341 14.1667 3.33341C14.6269 3.33341 15 3.70651 15 4.16675Z" fill="#777E91"/>
<path fill-rule="evenodd" clip-rule="evenodd" d="M3.33337 12.5001C3.33337 11.1194 4.45266 10.0001 5.83337 10.0001C7.21409 10.0001 8.33337 11.1194 8.33337 12.5001V14.1667C8.33337 15.5475 7.21409 16.6667 5.83337 16.6667C4.45266 16.6667 3.33337 15.5475 3.33337 14.1667V12.5001ZM6.66671 12.5001V14.1667C6.66671 14.627 6.29361 15.0001 5.83337 15.0001C5.37314 15.0001 5.00004 14.627 5.00004 14.1667V12.5001C5.00004 12.0398 5.37314 11.6667 5.83337 11.6667C6.29361 11.6667 6.66671 12.0398 6.66671 12.5001Z" fill="#777E91"/>
</svg>
