<svg width="16" height="16" viewBox="0 0 16 16" fill="none" xmlns="http://www.w3.org/2000/svg">
<path fill-rule="evenodd" clip-rule="evenodd" d="M3.52861 3.52851C3.78896 3.26816 4.21107 3.26816 4.47141 3.52851L8.00001 7.05711L11.5286 3.52851C11.789 3.26816 12.2111 3.26816 12.4714 3.52851C12.7318 3.78886 12.7318 4.21097 12.4714 4.47132L8.94282 7.99992L12.4714 11.5285C12.7318 11.7889 12.7318 12.211 12.4714 12.4713C12.2111 12.7317 11.789 12.7317 11.5286 12.4713L8.00001 8.94273L4.47141 12.4713C4.21107 12.7317 3.78896 12.7317 3.52861 12.4713C3.26826 12.211 3.26826 11.7889 3.52861 11.5285L7.0572 7.99992L3.52861 4.47132C3.26826 4.21097 3.26826 3.78886 3.52861 3.52851Z" fill="#FCFCFD"/>
</svg>
