<svg width="16" height="16" viewBox="0 0 16 16" fill="none" xmlns="http://www.w3.org/2000/svg">
<g id="icons/Loading/Line">
<g id="Shape">
<path d="M7.99998 1.33337C7.63179 1.33337 7.33331 1.63185 7.33331 2.00004V4.00004C7.33331 4.36823 7.63179 4.66671 7.99998 4.66671C8.36817 4.66671 8.66665 4.36823 8.66665 4.00004V2.00004C8.66665 1.63185 8.36817 1.33337 7.99998 1.33337Z" fill="#FCFCFD"/>
<path d="M7.99998 11.3334C7.63179 11.3334 7.33331 11.6319 7.33331 12V14C7.33331 14.3682 7.63179 14.6667 7.99998 14.6667C8.36817 14.6667 8.66665 14.3682 8.66665 14V12C8.66665 11.6319 8.36817 11.3334 7.99998 11.3334Z" fill="#FCFCFD"/>
<path d="M14 7.33337C14.3682 7.33337 14.6666 7.63185 14.6666 8.00004C14.6666 8.36823 14.3682 8.66671 14 8.66671H12C11.6318 8.66671 11.3333 8.36823 11.3333 8.00004C11.3333 7.63185 11.6318 7.33337 12 7.33337H14Z" fill="#FCFCFD"/>
<path d="M4.66665 8.00004C4.66665 7.63185 4.36817 7.33337 3.99998 7.33337H1.99998C1.63179 7.33337 1.33331 7.63185 1.33331 8.00004C1.33331 8.36823 1.63179 8.66671 1.99998 8.66671H3.99998C4.36817 8.66671 4.66665 8.36823 4.66665 8.00004Z" fill="#FCFCFD"/>
<path d="M11.7713 3.28606C12.0316 3.02571 12.4537 3.02571 12.7141 3.28606C12.9744 3.54641 12.9744 3.96852 12.7141 4.22887L11.2998 5.64308C11.0395 5.90343 10.6174 5.90343 10.357 5.64308C10.0967 5.38273 10.0967 4.96062 10.357 4.70027L11.7713 3.28606Z" fill="#FCFCFD"/>
<path d="M5.64293 10.357C5.38258 10.0967 4.96047 10.0967 4.70012 10.357L3.28591 11.7712C3.02556 12.0316 3.02556 12.4537 3.28591 12.714C3.54626 12.9744 3.96837 12.9744 4.22872 12.714L5.64293 11.2998C5.90328 11.0395 5.90328 10.6174 5.64293 10.357Z" fill="#FCFCFD"/>
<path d="M12.714 11.7713C12.9744 12.0317 12.9744 12.4538 12.714 12.7141C12.4537 12.9745 12.0316 12.9745 11.7712 12.7141L10.357 11.2999C10.0967 11.0396 10.0967 10.6174 10.357 10.3571C10.6174 10.0967 11.0395 10.0967 11.2998 10.3571L12.714 11.7713Z" fill="#FCFCFD"/>
<path d="M5.643 5.64299C5.90335 5.38265 5.90335 4.96054 5.643 4.70019L4.22878 3.28597C3.96843 3.02562 3.54632 3.02562 3.28597 3.28597C3.02562 3.54632 3.02562 3.96843 3.28597 4.22878L4.70019 5.64299C4.96054 5.90334 5.38265 5.90334 5.643 5.64299Z" fill="#FCFCFD"/>
</g>
</g>
</svg>
