<svg width="20" height="20" viewBox="0 0 20 20" fill="none" xmlns="http://www.w3.org/2000/svg">
<path fill-rule="evenodd" clip-rule="evenodd" d="M12.4214 13.6C11.2925 14.4775 9.87395 15.0001 8.33335 15.0001C4.65146 15.0001 1.66669 12.0153 1.66669 8.33342C1.66669 4.65152 4.65146 1.66675 8.33335 1.66675C12.0153 1.66675 15 4.65152 15 8.33342C15 9.87401 14.4775 11.2925 13.5999 12.4215L18.0893 16.9108C18.4147 17.2363 18.4147 17.7639 18.0893 18.0893C17.7638 18.4148 17.2362 18.4148 16.9108 18.0893L12.4214 13.6ZM13.3334 8.33342C13.3334 11.0948 11.0948 13.3334 8.33335 13.3334C5.57193 13.3334 3.33335 11.0948 3.33335 8.33342C3.33335 5.57199 5.57193 3.33341 8.33335 3.33341C11.0948 3.33341 13.3334 5.57199 13.3334 8.33342Z" fill="#777E91"/>
</svg>
